# xmcd CD database file
#
# Track frame offsets:
#	150
#	24087
#	46755
#	64887
#	90777
#	112952
#	128247
#	152350
#	176755
#	197330
#	218720
#	243020
#
# Disc length: 3248 seconds
#
# Revision: 1
# Processed by: cddbd v1.5.2PL0 Copyright (c) Steve Scherf et al.
# Submitted via: CDex 1.70beta2
#
DISCID=840cae0c
DTITLE=Chris Jones and Steve Baker - Gotta Look Up
DYEAR=2005
DGENRE=Blues
TTITLE0=Damm Good Run
TTITLE1=Elena's Smile
TTITLE2=U Get What U Pay
TTITLE3=One Word
TTITLE4=Coal Tattoo
TTITLE5=Doublecrossed and Blue
TTITLE6=Sweet Simone
TTITLE7=Vigilante Man
TTITLE8=Goin' Down That Road Feelin' Bad
TTITLE9=Gotta Look Up
TTITLE10=Maria's Lullaby
TTITLE11=Data
EXTD=YEAR: 2005
EXTT0=
EXTT1=
EXTT2=
EXTT3=
EXTT4=
EXTT5=
EXTT6=
EXTT7=
EXTT8=
EXTT9=
EXTT10=
EXTT11=
PLAYORDER=
